<svg xmlns="http://www.w3.org/2000/svg" width="512" height="512" viewBox="0 0 512 512" version="1.1">
    <path d="M 354.539 51.112 C 327.822 55.005, 302.442 72.567, 289.668 96 C 282.909 108.400, 279 125.460, 279 142.562 L 279 146.913 286.397 141.606 C 300.771 131.293, 321.231 123.048, 341.500 119.400 C 354.825 117.002, 383.674 116.936, 396.500 119.275 C 416.656 122.951, 435.600 130.360, 450.382 140.349 C 454.168 142.907, 457.430 145, 457.632 145 C 457.835 145, 457.997 140.387, 457.993 134.750 C 457.980 115.796, 452.068 99.109, 439.959 83.848 C 420.286 59.051, 387.167 46.359, 354.539 51.112 M 123.834 78.496 C 86.369 85.621, 56.892 117.590, 54.283 153.925 L 53.678 162.351 59.089 159.105 C 106.131 130.885, 170.232 129.967, 217.009 156.841 C 225.286 161.597, 225.508 161.662, 225.812 159.409 C 226.383 155.171, 222.987 138.800, 219.976 131.280 C 212.259 112.010, 197.037 95.519, 178.297 86.127 C 162.833 78.378, 140.736 75.281, 123.834 78.496 M 356.472 168.042 C 337.268 170.553, 317.795 179.762, 304.463 192.636 C 293.674 203.054, 285.477 216.905, 281.959 230.661 C 280.419 236.684, 280 241.704, 280 254.160 L 280 270 369 270 L 458 270 458 254.947 C 458 236.337, 456.498 228.940, 449.968 215.383 C 442.443 199.762, 428.096 185.535, 411.500 177.235 C 395.014 168.991, 374.904 165.631, 356.472 168.042 M 127.618 188.137 C 119.109 189.229, 104.327 194.086, 97 198.198 C 72.793 211.784, 56.061 236.589, 54.303 261.499 L 53.703 270 139.851 270 L 226 270 225.965 266.750 C 225.903 260.968, 223.281 248.675, 220.607 241.631 C 213.549 223.034, 200.054 207.880, 181.770 198.017 C 171.848 192.666, 164.416 190.196, 153 188.458 C 142.563 186.869, 137.946 186.811, 127.618 188.137" stroke="none" fill="#87ce34" fill-rule="evenodd"/>
    <path d="M 347.928 1.460 C 315.591 6.765, 289.551 19.365, 267.042 40.599 C 260.885 46.408, 248.049 62.266, 244.396 68.576 C 243.385 70.324, 242.625 69.855, 235.279 62.944 C 217.160 45.899, 194.616 34.541, 167.604 28.849 C 154.238 26.033, 128.873 25.756, 115.276 28.279 C 94.813 32.076, 76.838 39.436, 59.788 50.997 C 34.024 68.466, 16.320 91.840, 6.500 121.349 C 0.170 140.371, 0 143.378, 0 236.378 L 0 320 113 320 L 226 320 226 344.455 L 226 368.909 222.750 369.437 C 220.963 369.726, 171.575 375.142, 113 381.471 C 54.425 387.801, 5.037 393.229, 3.250 393.535 L -0 394.091 -0 419.065 L 0 444.040 7.147 448.664 C 39.669 469.702, 94.522 490.329, 146 500.878 C 201.561 512.263, 265.538 514.974, 324 508.420 C 390.533 500.961, 456.735 479.674, 501.105 451.473 C 514.162 443.174, 513 446.466, 513 417.767 C 513 404.080, 512.658 393.093, 512.240 393.352 C 511.821 393.610, 505.859 393.194, 498.990 392.427 C 492.120 391.660, 441.500 386.297, 386.500 380.509 C 331.500 374.721, 285.038 369.744, 283.250 369.448 L 280 368.909 280 344.459 L 280 320.008 396.250 319.754 L 512.500 319.500 512.459 224 C 512.422 137.845, 512.245 127.375, 510.652 117 C 501.895 59.991, 458.398 15.524, 399.077 2.938 C 386.370 0.242, 359.997 -0.520, 347.928 1.460 M 354.539 51.112 C 327.822 55.005, 302.442 72.567, 289.668 96 C 282.909 108.400, 279 125.460, 279 142.562 L 279 146.913 286.397 141.606 C 300.771 131.293, 321.231 123.048, 341.500 119.400 C 354.825 117.002, 383.674 116.936, 396.500 119.275 C 416.656 122.951, 435.600 130.360, 450.382 140.349 C 454.168 142.907, 457.430 145, 457.632 145 C 457.835 145, 457.997 140.387, 457.993 134.750 C 457.980 115.796, 452.068 99.109, 439.959 83.848 C 420.286 59.051, 387.167 46.359, 354.539 51.112 M 123.834 78.496 C 86.369 85.621, 56.892 117.590, 54.283 153.925 L 53.678 162.351 59.089 159.105 C 106.131 130.885, 170.232 129.967, 217.009 156.841 C 225.286 161.597, 225.508 161.662, 225.812 159.409 C 226.383 155.171, 222.987 138.800, 219.976 131.280 C 212.259 112.010, 197.037 95.519, 178.297 86.127 C 162.833 78.378, 140.736 75.281, 123.834 78.496 M 0.478 235 C 0.478 282.025, 0.600 301.263, 0.750 277.750 C 0.899 254.238, 0.899 215.763, 0.750 192.250 C 0.600 168.738, 0.478 187.975, 0.478 235 M 356.472 168.042 C 337.268 170.553, 317.795 179.762, 304.463 192.636 C 293.674 203.054, 285.477 216.905, 281.959 230.661 C 280.419 236.684, 280 241.704, 280 254.160 L 280 270 369 270 L 458 270 458 254.947 C 458 236.337, 456.498 228.940, 449.968 215.383 C 442.443 199.762, 428.096 185.535, 411.500 177.235 C 395.014 168.991, 374.904 165.631, 356.472 168.042 M 127.618 188.137 C 119.109 189.229, 104.327 194.086, 97 198.198 C 72.793 211.784, 56.061 236.589, 54.303 261.499 L 53.703 270 139.851 270 L 226 270 225.965 266.750 C 225.903 260.968, 223.281 248.675, 220.607 241.631 C 213.549 223.034, 200.054 207.880, 181.770 198.017 C 171.848 192.666, 164.416 190.196, 153 188.458 C 142.563 186.869, 137.946 186.811, 127.618 188.137 M 0.435 419 C 0.435 433.025, 0.575 438.762, 0.747 431.750 C 0.919 424.738, 0.919 413.262, 0.747 406.250 C 0.575 399.238, 0.435 404.975, 0.435 419" stroke="none" fill="#3c740c" fill-rule="evenodd"/>
</svg>